# xmcd
#
# Track frame offsets:
#	150
#	4735
#	26665
#	41206
#	62516
#	67514
#	80164
#	93982
#	101872
#	114880
#	122427
#	143865
#	154784
#	167617
#	181485
#	190253
#	199196
#	212177
#	226839
#	244186
#	252230
#	258332
#
# Disc length: 3471 seconds
#
# Revision: 1
# Processed by: cddbd v1.5.2PL0 Copyright (c) Steve Scherf et al.
# Submitted via: audiograbber 1.83.01
#
DISCID=290d8d16
DTITLE=Böhse Onkelz - Der nette Mann Tour 1985
DYEAR=1985
DGENRE=Rock
TTITLE0=Soundcheck
TTITLE1=Keiner wußte wie's geschah
TTITLE2=Fußball and Gewalt
TTITLE3=Signum des Verrats
TTITLE4=Das Tier in mir
TTITLE5=Mexico '86
TTITLE6=Deutschland
TTITLE7=Ein Mensch wie Du und Ich
TTITLE8=Die Stunde des Siegers
TTITLE9=Stöckel und Strapse
TTITLE10=Heute trinken wir richtig
TTITLE11=Stolz
TTITLE12=Der freundliche Herr
TTITLE13=Hässlich, brutal und gewalttätig
TTITLE14=Ich lieb' mich
TTITLE15=Dr. Martens Beat
TTITLE16=Vereint
TTITLE17=Hass
TTITLE18=Idiot
TTITLE19=Was für ein schöner Tag
TTITLE20=Oi, Oi, Oi
TTITLE21=Wir trinken das schäumende Bier
EXTD=
EXTT0=
EXTT1=
EXTT2=
EXTT3=
EXTT4=
EXTT5=
EXTT6=
EXTT7=
EXTT8=
EXTT9=
EXTT10=
EXTT11=
EXTT12=
EXTT13=
EXTT14=
EXTT15=
EXTT16=
EXTT17=
EXTT18=
EXTT19=
EXTT20=
EXTT21=
PLAYORDER=
